PathFileType	4	(X/Y/Z)	Patient4_TMGait_0pt2_02_right_13.trc.trc
DataRate	CameraRate	NumFrames	NumMarkers	Units	OrigDataRate	OrigDataStartFrame	OrigNumFrames
44.585987261147	44.585987261147	7	33	mm	44.585987261147	89	       141
Frame#	Time	R.Midfoot.Superior			Sacral			L.Shoulder			Chest			R.Shoulder			Neck			R.ASIS			L.ASIS			R.Thigh.Superior			R.Thigh.Lateral			R.Thigh.Inferior			R.Patella			L.Thigh.Superior			L.Thigh.Lateral			L.Thigh.Inferior			L.Patella			L.Shank.Superior			L.Shank.Lateral			L.Shank.Inferior			R.Shank.Superior			R.Shank.Lateral			R.Shank.Inferior			R.Heel			R.Midfoot.Lateral			R.Toe			L.Heel			L.Midfoot.Lateral			L.Midfoot.Superior			L.Toe			L.Elbow			L.Wrist			R.Elbow			R.Wrist			
		X1	Y1	Z1	X2	Y2	Z2	X3	Y3	Z3	X4	Y4	Z4	X5	Y5	Z5	X6	Y6	Z6	X7	Y7	Z7	X8	Y8	Z8	X9	Y9	Z9	X10	Y10	Z10	X11	Y11	Z11	X12	Y12	Z12	X13	Y13	Z13	X14	Y14	Z14	X15	Y15	Z15	X16	Y16	Z16	X17	Y17	Z17	X18	Y18	Z18	X19	Y19	Z19	X20	Y20	Z20	X21	Y21	Z21	X22	Y22	Z22	X23	Y23	Z23	X24	Y24	Z24	X25	Y25	Z25	X26	Y26	Z26	X27	Y27	Z27	X28	Y28	Z28	X29	Y29	Z29	X30	Y30	Z30	X31	Y31	Z31	X32	Y32	Z32	X33	Y33	Z33	

89	30.643714285714	731.854028218217	105.139377714478	574.020690286857	706.544340607369	1015.053607120892	464.171848328810	840.904248975179	1425.602980487448	223.351520482353	985.172894700179	1361.117127657454	351.888470985332	953.214054514129	1457.573118347328	529.359733190008	868.605521536910	1492.960365853267	374.537707199050	947.169419036307	937.525472695798	536.899506157626	886.610422146072	960.150082288932	270.909751148037	943.644026399388	721.637705668060	513.695731408998	853.231578096800	625.298274870194	589.879785194844	906.492991579014	559.014033383231	504.754792840723	887.994566877479	464.223039169401	521.209914365489	955.196419737462	760.501470540806	305.589264858015	876.996837371796	632.574386246243	250.273505183211	973.163222463473	566.896876019998	309.681134437720	980.252781717210	497.570913972106	317.359400546755	956.394313465586	423.163234041006	311.206386100536	869.873200852076	303.851929599970	265.110355381972	931.561567242236	196.425635066102	335.120607734927	828.104861827765	390.857847405057	536.707195030889	729.097726145523	320.606639834263	608.312683980645	734.281615565551	213.607998836215	553.315267853057	552.810140295413	87.679248193676	537.743633694773	632.918924560679	64.581385149583	612.580298237593	836.005368638563	36.128861190584	605.628128247283	812.908713772777	37.416150154095	380.634462545933	885.589568835481	34.040209113373	298.295773412490	966.830785148025	99.494276386606	322.206925304936	1095.779324257151	53.395300859798	293.481563904792	700.900277865241	1099.581538944260	145.114062311181	679.711787974629	839.309258544156	165.736950761115	1191.595519647541	1234.416889999031	615.329067008457	1354.553422075700	1367.989031958582	471.415024175382	
90	30.666142857143	729.812283145868	105.787087045584	574.145700406109	707.495925748270	1015.096908327668	459.710406548302	841.822116207890	1426.207776626768	220.708884188370	985.427028001206	1362.152328637609	350.147298652933	952.277735504044	1458.355473656226	527.712796011134	868.698039450065	1493.782220208426	372.229115243895	948.144655900958	938.073956602251	533.388025543877	888.744046623329	961.104714866698	267.142306698345	946.235269807821	722.486867156849	510.717591094969	856.358113292602	625.725897213146	586.905355762262	910.655269918009	559.351886177793	502.262020755818	892.485273499330	463.506215478719	519.615011537270	956.191586900154	759.976936891822	302.316614251228	877.025684980027	632.301560218841	247.887903487743	972.466361403578	566.075789242647	307.828830619650	979.072892483993	496.662050962668	315.842195086880	954.669994653786	422.474937852002	310.108394922013	867.464932895356	303.575906759884	264.371113552957	928.081634692745	196.027147194989	334.945930333604	831.069473702702	391.049989269740	535.204243583926	730.562852863862	322.919582845715	606.710290395312	734.193721232969	215.296275788176	552.702821590490	550.423024235009	92.957565587316	537.630119781909	629.863218079373	67.716087222743	612.529734512486	831.895609996335	35.975963992026	605.643490230051	808.401171333562	37.483126443646	380.724049219346	881.021341012194	34.121461754549	298.381599153174	962.434548148633	99.143399693214	322.328081919773	1091.271469725287	52.843142213312	293.436610017577	712.189686687202	1096.324196993130	137.606553550414	697.186675358373	835.426628400863	154.426324061406	1184.157335174117	1225.115839864859	615.133750171831	1355.765541118838	1349.628389335347	472.609048537916	
91	30.688571428571	727.960745403023	106.391094186311	574.350015742397	708.369133715359	1014.640367342671	455.074476221964	842.671745851354	1426.737774289576	218.377004323242	985.491459327384	1362.949347650194	348.763757039865	951.021994412110	1458.552610598051	526.549681059483	868.593205764380	1494.301783618097	370.375414299477	949.122049131632	938.332619018219	529.811896409999	890.989188051246	961.759286155456	263.299327990738	949.208165293060	723.130597780446	507.713775361360	860.049569839489	625.827387229995	583.888012806126	915.548788193873	559.435168175147	499.724784835780	897.800547993160	462.464855183238	518.029213317847	957.740111339782	759.439100788221	299.256938342875	878.066094785919	631.785283689957	245.592367682286	972.849083791633	565.211771540238	306.187992258576	979.119154317525	495.577380028502	314.529288254719	953.978145456079	421.539021064905	309.247720523387	865.930747338227	303.250597658207	263.719269707684	925.034044692435	195.460226186799	334.916080857595	834.760858630563	390.925445412890	533.714394068536	732.651269202053	325.188545438127	605.112619733563	734.581904846673	216.945719478509	552.157201575658	548.368916487516	98.593802504703	537.585443474930	626.979525573286	71.035970876828	612.537565648442	827.716195289595	35.878592535146	605.688019671039	803.907052092881	37.578917589661	380.826623237575	876.479337801366	34.238430353692	298.504368729608	958.142272807599	98.711964477033	322.560384634935	1086.834085039902	52.067399928502	293.454568327800	724.682150341583	1092.968544054074	130.396684465999	716.438099383855	831.651416330790	143.557670285846	1175.106986671956	1214.161057515021	615.123228457281	1356.391117960585	1326.973000674899	474.665636757138	
92	30.711000000000	726.336082305031	107.024681704939	574.611157686181	709.168753902571	1013.606806656314	450.223904827474	843.519763803299	1427.124287377463	216.319826475835	985.392444297563	1363.421222762449	347.732980794652	949.428477532087	1458.047718903271	525.858708602033	868.305212969249	1494.440542748918	368.942677748637	950.071583081913	938.248108206131	526.187795440751	893.363438416408	962.037339169256	259.384737562073	952.602537412119	723.532225595122	504.671869816178	864.388194837558	625.559633733865	580.820870734099	921.271318094895	559.237095843881	497.127798903289	904.060490509725	461.077917792935	516.432676601943	959.896235786204	758.850530895242	296.386697305846	880.199939654869	630.972756099596	243.365093207710	974.413054286200	564.276501447979	304.738038980306	980.498699444441	494.285353246589	313.402210329447	954.401633162199	420.306706942270	308.600141121979	865.324990278633	302.851444844071	263.133735962999	922.440272441313	194.704332691321	335.010701222801	839.294262852427	390.467737264194	532.220150419736	735.472040586169	327.455302198146	603.498285084120	735.523426664331	218.611684267266	551.661896999857	546.757942520376	104.755781869167	537.543926715571	624.316949405132	74.692320879207	612.553512392846	823.438410080094	35.786378621056	605.770462735021	799.438517310367	37.700977551268	380.931536553897	871.980017041389	34.386125523069	298.656177432925	953.957876979589	98.227311909637	322.892464853183	1082.480689052091	51.094908011256	293.533065924009	738.311040647925	1089.590096171129	123.525749841569	737.517437455330	828.110930251814	133.292697436387	1164.405541298668	1201.710189320360	615.197537415186	1355.999924629767	1299.815302737926	477.641276568279	
93	30.733428571429	724.984580209559	107.792190706108	574.879996008476	709.905540657608	1011.941099031550	445.137461440485	844.443450927193	1427.297761415455	214.495895815729	985.165732592733	1363.488412958819	347.045403146785	947.489287422353	1456.751029854997	525.614255118065	867.860891891434	1494.132831685401	367.881676039313	950.955914840804	937.780965990079	522.547339611238	895.876926392918	961.874824801446	255.417006054373	956.459462521335	723.677414062034	501.583939812715	869.459055567055	624.901519137408	577.699775345486	927.916300480860	558.760962919135	494.452217392773	911.386226667764	459.352275868747	514.796442051011	962.662449302205	758.163250769938	293.677261559696	883.422205018058	629.822701556330	241.187068084104	977.164888008443	563.236081571634	303.454393476449	983.210304308611	492.760667674145	312.438007989146	955.931348462643	418.744087958669	308.130528431404	865.621955722667	302.354992638174	262.596061063621	920.280152890534	193.751030779822	335.202508986781	844.788119001183	389.689246526198	530.689668304130	739.144526727186	329.784083939852	601.826877221171	737.104045381785	220.376521617203	551.174377919384	545.728794396661	111.645030270157	537.393283425043	621.940973530353	78.880636262973	612.490975230945	819.032559441027	35.644023540886	605.894379656627	795.002457162030	37.845503457329	381.029599267984	867.531679441817	34.556833993751	298.826822919037	949.872330857348	97.721018086762	323.303155211765	1078.212736339379	49.967313768721	293.660310540135	752.952181568073	1086.272501714985	117.016062838630	760.409327170437	824.951324828454	123.772221017585	1152.066569306910	1187.983676021377	615.283855201844	1354.045834730215	1268.134454176908	481.626860627117	
94	30.755857142857	723.965091903199	108.823227261673	575.082107506223	710.591679240244	1009.621095536613	439.815081369451	845.528110701400	1427.195088632373	212.862146057511	984.857807905091	1363.086520320946	346.686788983791	945.212237458718	1454.611696461385	525.776139411919	867.301815447145	1493.333765197905	367.130970052052	951.733301942463	936.908791967845	518.935224604199	898.530349133386	961.229124882130	251.429547696278	960.812711465877	723.580247631308	498.446727496787	875.340180462684	623.861363262422	574.524891461024	935.561045329562	558.046381025512	491.678054305045	919.884497634540	457.330448248419	513.083528291317	965.985963982351	757.324709513698	291.099389161376	887.637207139136	628.311032113379	239.044697072288	981.009962990592	562.055776179294	302.313659651147	987.140225306544	490.988143893998	311.614336174594	958.464466428951	416.838203219742	307.799118670719	866.717566473700	301.742811417658	262.094172388217	918.494720184759	192.606093603405	335.461901966576	851.351035052035	388.635594603156	529.077286272775	743.785590926857	332.255695088177	600.037073313960	739.413538528339	222.342741724084	550.624308146742	545.443489261416	119.472299963405	536.975541316002	619.934843281396	83.820516001547	612.227141037584	814.476049191225	35.399315919644	606.054958431595	790.600676081598	38.007578220224	381.114251734810	863.134644382153	34.741076701612	299.005200487566	945.865957424501	97.223659628263	323.765090347387	1074.020193404985	48.737826129353	293.818191384822	768.439571192964	1083.101082020228	110.869873740889	785.035127720293	822.329585660302	115.105968932650	1138.156145390519	1173.253706203536	615.349261351731	1349.885417189397	1232.136618373706	486.739519838454	
95	30.778285714286	723.352516185711	110.259943722575	575.122777830442	711.233754036284	1006.668227489906	434.277800060400	846.862813729040	1426.768955676685	211.378641272205	984.525597862680	1362.174927311411	346.639272279957	942.624197407973	1451.628102600543	526.290916918058	866.685064262604	1492.027170229938	366.622875509710	952.361646492963	935.629922846810	515.404881987615	901.312236092739	960.087249841875	247.468927939120	965.678554173860	723.288017222644	495.260528335673	882.089419432604	622.483240782703	571.300744128254	944.251899707639	557.172861848295	488.787094814103	929.628353561079	455.096369951618	511.251172682239	969.762929322002	756.286407132525	288.627293345207	892.666070531030	626.435801301556	236.933092134442	985.759474309681	560.706259979306	301.298958098006	992.073085846227	488.966159768751	310.915165883918	961.814955992510	414.601293420185	307.569096121371	868.441763045780	301.005521827161	261.624686721413	916.994508041559	191.290078212264	335.761340930979	859.065163514897	387.387582616757	527.326896972942	749.492427603992	334.957527425783	598.048169828635	742.538725866349	224.620988938994	549.916692022592	546.075776621397	128.421584186867	536.097338901259	618.399593207784	89.723953315147	611.610600388455	809.767891097814	35.012093650146	606.236218747886	786.230682593375	38.181962859696	381.181829642435	858.782663104631	34.929086195170	299.180875750799	941.912431170767	96.760158081216	324.249203641218	1069.884010633558	47.465574607494	293.986212869866	784.584994232437	1080.160615963086	105.071058513241	811.259624878959	820.408862126286	107.363801691858	1122.784406564829	1157.834769666212	615.410951520987	1342.816055644204	1192.282633576735	493.108245309685	
